<?xml version="1.0" encoding="UTF-8"?>
<svg xmlns="http://www.w3.org/2000/svg" width="720" height="320" viewBox="0 0 720 320">
  <rect width="720" height="320" fill="#F7F3E8"/>
  <rect x="0" y="0" width="720" height="22" fill="#6CB7D8"/>
  <rect x="0" y="298" width="720" height="22" fill="#2D8C68"/>
  <g opacity=".15" stroke="#102A43" stroke-width="5" stroke-linecap="round">
    <path d="M30 76h54M30 104h34M620 216h70M646 244h44"/>
  </g>
  <g transform="translate(58 58)">
    <rect width="204" height="204" rx="42" fill="#6CB7D8"/>
    <circle cx="102" cy="102" r="64" fill="#FFFFFF" stroke="#102A43" stroke-width="10"/>
    <path d="M102 54v48l34 22" fill="none" stroke="#102A43" stroke-width="12" stroke-linecap="round" stroke-linejoin="round"/>
    <circle cx="102" cy="102" r="9" fill="#F3A83B"/>
    <path d="M40 70c-13 12-13 52 0 64M164 70c13 12 13 52 0 64" fill="none" stroke="#2D8C68" stroke-width="10" stroke-linecap="round"/>
  </g>
  <g fill="#102A43" font-family="Arial, Helvetica, sans-serif">
    <text x="310" y="141" font-size="63" font-weight="700">Tick Every</text>
    <text x="314" y="184" font-size="22" font-weight="700" letter-spacing="2.4">REPEATING HAPTIC TIMER</text>
  </g>
  <g transform="translate(314 222)">
    <circle cx="0" cy="0" r="7" fill="#F3A83B"/>
    <circle cx="32" cy="0" r="7" fill="#F3A83B"/>
    <circle cx="64" cy="0" r="7" fill="#F3A83B"/>
    <path d="M96 0h176" stroke="#2D8C68" stroke-width="8" stroke-linecap="round"/>
  </g>
</svg>
